HIERARCHY
ROOT Hips
{
	OFFSET 0.00000 0.00000 0.00000
	CHANNELS 6 Xposition Yposition Zposition Zrotation Yrotation Xrotation 
	JOINT LHipJoint
	{
		OFFSET 0 0 0
		CHANNELS 3 Zrotation Yrotation Xrotation
		JOINT LeftUpLeg
		{
			OFFSET 1.53139 -1.83434 0.76626
			CHANNELS 3 Zrotation Yrotation Xrotation
			JOINT LeftLeg
			{
				OFFSET 2.56112 -7.03663 0.00000
				CHANNELS 3 Zrotation Yrotation Xrotation
				JOINT LeftFoot
				{
					OFFSET 2.59983 -7.14299 0.00000
					CHANNELS 3 Zrotation Yrotation Xrotation
					JOINT LeftToeBase
					{
						OFFSET 0.13742 -0.37757 2.00054
						CHANNELS 3 Zrotation Yrotation Xrotation
						End Site
						{
							OFFSET 0.00000 -0.00000 1.02897
						}
					}
				}
			}
		}
	}
	JOINT RHipJoint
	{
		OFFSET 0 0 0
		CHANNELS 3 Zrotation Yrotation Xrotation
		JOINT RightUpLeg
		{
			OFFSET -1.40122 -1.83435 0.76627
			CHANNELS 3 Zrotation Yrotation Xrotation
			JOINT RightLeg
			{
				OFFSET -2.54052 -6.98003 0.00000
				CHANNELS 3 Zrotation Yrotation Xrotation
				JOINT RightFoot
				{
					OFFSET -2.63179 -7.23079 0.00000
					CHANNELS 3 Zrotation Yrotation Xrotation
					JOINT RightToeBase
					{
						OFFSET -0.24131 -0.66299 2.03908
						CHANNELS 3 Zrotation Yrotation Xrotation
						End Site
						{
							OFFSET -0.00000 -0.00000 1.07391
						}
					}
				}
			}
		}
	}
	JOINT LowerBack
	{
		OFFSET 0 0 0
		CHANNELS 3 Zrotation Yrotation Xrotation
		JOINT Spine
		{
			OFFSET 0.01174 2.10302 -0.29778
			CHANNELS 3 Zrotation Yrotation Xrotation
			JOINT Spine1
			{
				OFFSET 0.00772 2.13227 -0.01247
				CHANNELS 3 Zrotation Yrotation Xrotation
				JOINT Neck
				{
					OFFSET 0 0 0
					CHANNELS 3 Zrotation Yrotation Xrotation
					JOINT Neck1
					{
						OFFSET -0.09219 1.60848 0.31481
						CHANNELS 3 Zrotation Yrotation Xrotation
						JOINT Head
						{
							OFFSET 0.13974 1.65456 -0.31134
							CHANNELS 3 Zrotation Yrotation Xrotation
							End Site
							{
								OFFSET 0.04742 1.69515 -0.14578
							}
						}
					}
				}
				JOINT LeftShoulder
				{
					OFFSET 0 0 0
					CHANNELS 3 Zrotation Yrotation Xrotation
					JOINT LeftArm
					{
						OFFSET 3.24909 1.02882 -0.23993
						CHANNELS 3 Zrotation Yrotation Xrotation
						JOINT LeftForeArm
						{
							OFFSET 5.32955 -0.00000 -0.00000
							CHANNELS 3 Zrotation Yrotation Xrotation
							JOINT LeftHand
							{
								OFFSET 3.69232 -0.00000 -0.00000
								CHANNELS 3 Zrotation Yrotation Xrotation
								JOINT LeftFingerBase
								{
									OFFSET 0 0 0
									CHANNELS 3 Zrotation Yrotation Xrotation
									JOINT LeftHandIndex1
									{
										OFFSET 0.53660 -0.00000 -0.00000
										CHANNELS 3 Zrotation Yrotation Xrotation
										End Site
										{
											OFFSET 0.43262 -0.00000 -0.00000
										}
									}
								}
								JOINT LThumb
								{
									OFFSET 0 0 0
									CHANNELS 3 Zrotation Yrotation Xrotation
									End Site
									{
										OFFSET 0.43922 -0.00000 0.43922
									}
								}
							}
						}
					}
				}
				JOINT RightShoulder
				{
					OFFSET 0 0 0
					CHANNELS 3 Zrotation Yrotation Xrotation
					JOINT RightArm
					{
						OFFSET -3.21387 0.93002 -0.34594
						CHANNELS 3 Zrotation Yrotation Xrotation
						JOINT RightForeArm
						{
							OFFSET -5.23431 -0.00000 0.00000
							CHANNELS 3 Zrotation Yrotation Xrotation
							JOINT RightHand
							{
								OFFSET -3.55301 -0.00000 -0.00000
								CHANNELS 3 Zrotation Yrotation Xrotation
								JOINT RightFingerBase
								{
									OFFSET 0 0 0
									CHANNELS 3 Zrotation Yrotation Xrotation
									JOINT RightHandIndex1
									{
										OFFSET -0.77252 -0.00000 -0.00000
										CHANNELS 3 Zrotation Yrotation Xrotation
										End Site
										{
											OFFSET -0.62283 -0.00000 -0.00000
										}
									}
								}
								JOINT RThumb
								{
									OFFSET 0 0 0
									CHANNELS 3 Zrotation Yrotation Xrotation
									End Site
									{
										OFFSET -0.63234 -0.00000 0.63234
									}
								}
							}
						}
					}
				}
			}
		}
	}
}
MOTION
Frames: 16
Frame Time: .0083333
5.8203 17.8122 -2.3995 10.5687 -46.2532 -8.6655 0.0000 0.0000 0.0000 -31.0559 0.3388 6.1853 0.4596 4.3487 12.0599 0.0374 -11.4216 -8.5464 0.1035 2.0749 5.7127 0.0000 0.0000 0.0000 11.1029 4.7941 -31.8659 -6.3241 -14.7352 46.2690 -0.2531 -3.7858 -11.6687 -0.0432 -1.3421 3.6906 -6.3533 0.7598 11.5729 -0.7990 0.1275 1.4384 2.7244 0.1629 -4.9983 -10.5551 -4.4465 -19.7443 6.4913 -4.6811 22.2843 3.3926 -2.2811 10.8717 0.0000 0.0000 0.0000 -83.1932 -1.1919 26.4663 21.2944 -32.1704 -6.2059 -0.0000 -0.0000 7.7869 17.4681 25.0343 7.5851 -7.1250 0.0000 -0.0000 -13.0671 55.5874 -3.4378 0.0000 0.0000 0.0000 87.1552 -2.7092 21.1472 -21.2676 32.1394 -6.1917 0.0000 0.0000 4.3170 -15.0721 11.4968 -3.0724 7.1250 -0.0000 -0.0000 8.4537 -18.1596 5.4577
5.7077 17.8102 -2.3052 10.7763 -46.2455 -8.6457 0.0000 0.0000 0.0000 -31.1351 0.9172 7.0445 0.3745 3.9307 10.8819 0.0212 -11.3996 -8.3022 0.0405 1.2988 3.5713 0.0000 0.0000 0.0000 10.8711 5.1456 -32.0434 -5.6416 -14.0718 43.5257 -0.1653 -4.2756 -10.4566 -0.0632 -1.6225 4.4634 -6.4332 0.7572 11.3596 -0.8718 0.1274 1.4481 2.6931 0.1597 -4.8695 -10.5231 -4.4907 -19.8755 6.5143 -4.7481 22.3559 3.3855 -2.3045 10.9294 0.0000 0.0000 0.0000 -83.0075 -1.5524 26.9247 21.3993 -32.2914 -6.2619 -0.0000 -0.0000 7.6687 17.4284 24.6479 7.4587 -7.1250 0.0000 -0.0000 -12.9182 55.1960 -3.2740 0.0000 0.0000 0.0000 87.1388 -2.6492 21.1554 -21.2354 32.1021 -6.1746 0.0000 0.0000 4.0110 -15.1487 11.5993 -3.1158 7.1250 -0.0000 -0.0000 8.3990 -18.0497 5.4422
5.5921 17.8160 -2.2154 10.7452 -46.2277 -8.4444 0.0000 0.0000 0.0000 -31.0732 1.1109 8.1882 0.2773 3.3868 9.3575 0.0051 -10.9873 -7.7834 0.0170 0.8416 2.3129 0.0000 0.0000 0.0000 10.7997 5.5450 -32.1170 -4.9839 -13.3657 40.7532 -0.0804 -4.7947 -9.1233 -0.1115 -2.1533 5.9294 -6.4340 0.7397 11.2320 -0.8848 0.1127 1.4074 2.6822 0.1528 -4.8400 -10.2385 -4.3438 -20.0739 6.5899 -4.6472 22.6504 3.3863 -2.2259 11.0594 0.0000 -0.0000 0.0000 -82.7460 -1.9640 27.5720 21.3478 -32.2321 -6.2344 -0.0000 -0.0000 7.4757 17.3619 24.6015 7.4158 -7.1250 0.0000 -0.0000 -12.9637 55.1369 -3.2671 0.0000 -0.0000 0.0000 87.1682 -2.6215 20.9973 -21.1855 32.0443 -6.1481 0.0000 0.0000 4.2031 -15.0342 11.4368 -3.0486 7.1250 -0.0000 -0.0000 8.4808 -18.2232 5.4636
5.4763 17.8159 -2.1245 10.8388 -46.0936 -8.4626 0.0000 0.0000 0.0000 -31.0877 1.3315 9.6354 0.1810 2.7405 7.5572 -0.0276 -10.6352 -7.0157 0.0148 0.7850 2.1575 0.0000 0.0000 0.0000 10.5647 5.9414 -31.9690 -4.3670 -12.6334 38.0112 -0.0048 -5.3397 -7.7681 -0.1764 -2.7057 7.4603 -6.5839 0.6870 11.2459 -0.8745 0.0239 1.4126 2.7908 0.1115 -4.8340 -10.0598 -4.2544 -20.3485 6.6110 -4.5692 22.9168 3.3803 -2.1710 11.1988 -0.0000 -0.0000 0.0000 -82.6215 -2.4380 28.0008 21.2597 -32.1303 -6.1875 -0.0000 -0.0000 7.3738 17.3753 24.6482 7.4349 -7.1250 0.0000 -0.0000 -12.9725 55.1859 -3.2849 -0.0000 -0.0000 0.0000 87.1843 -2.5218 20.7701 -21.0946 31.9386 -6.0999 0.0000 0.0000 4.5197 -14.8093 11.1376 -2.9236 7.1250 -0.0000 -0.0000 8.6426 -18.5428 5.5084
5.3611 17.8171 -2.0354 10.9999 -45.8065 -8.4293 0.0000 0.0000 0.0000 -31.1785 1.4187 11.1832 0.0958 1.9959 5.4944 -0.0609 -10.1626 -6.0744 0.0207 0.9295 2.5548 0.0000 0.0000 0.0000 10.1389 6.4695 -31.7798 -3.7894 -11.8747 35.2902 0.0525 -5.9080 -6.7190 -0.2707 -3.3466 9.2453 -6.7869 0.5566 11.1869 -0.8274 -0.1675 1.3656 2.9835 0.0229 -4.8314 -10.1265 -4.2411 -20.4626 6.5443 -4.5025 23.0182 3.3785 -2.1543 11.2526 -0.0000 -0.0000 0.0000 -82.6840 -2.7108 28.1401 21.2934 -32.1692 -6.2054 -0.0000 -0.0000 7.3857 17.4556 24.6647 7.4757 -7.1250 0.0000 -0.0000 -12.8986 55.2180 -3.2759 -0.0000 -0.0000 0.0000 87.0297 -2.5683 20.8461 -21.0492 31.8858 -6.0759 0.0000 0.0000 4.6708 -14.9265 10.8965 -2.8848 7.1250 -0.0000 -0.0000 8.5642 -18.7814 5.4115
5.2453 17.8135 -1.9486 11.1279 -45.5184 -8.4372 0.0000 0.0000 0.0000 -31.2567 1.7804 13.4448 0.0147 0.7828 2.1514 -0.1063 -9.4794 -4.5591 0.0139 0.7602 2.0893 0.0000 0.0000 0.0000 9.6847 7.1124 -31.4407 -3.2672 -11.1155 32.6702 0.0876 -6.4112 -6.2695 -0.3154 -3.6101 9.9824 -6.9458 0.4333 11.2403 -0.7864 -0.3549 1.3016 3.1447 -0.0616 -4.9085 -10.4056 -4.2551 -20.3453 6.6870 -4.4762 22.9046 3.4812 -2.1500 11.1964 0.0000 -0.0000 0.0000 -82.7818 -2.8292 28.2115 21.4009 -32.2933 -6.2627 -0.0000 -0.0000 7.4825 17.6313 24.3526 7.4663 -7.1250 0.0000 -0.0000 -12.5699 54.9421 -3.1055 0.0000 -0.0000 0.0000 86.8537 -2.6803 20.9491 -21.0045 31.8336 -6.0523 0.0000 0.0000 4.6708 -14.9990 10.8366 -2.8837 7.1250 -0.0000 -0.0000 8.5141 -18.8380 5.3683
5.1261 17.8092 -1.8597 11.1772 -45.2538 -8.3723 0.0000 0.0000 0.0000 -31.2908 1.9266 15.0785 0.0000 -0.0000 -0.0000 -0.1250 -8.9487 -3.5553 0.0184 0.8756 2.4065 0.0000 0.0000 0.0000 9.2962 7.7372 -31.0750 -2.8015 -10.3666 30.1722 0.1027 -6.7329 -6.3213 -0.2218 -3.0313 8.3660 -7.0466 0.3330 11.2124 -0.7726 -0.4979 1.2759 3.2374 -0.1293 -4.9042 -10.5241 -4.3540 -20.2849 6.6805 -4.5716 22.7155 3.4798 -2.2023 11.1272 0.0000 0.0000 0.0000 -82.7611 -2.9611 28.4403 21.5818 -32.5012 -6.3597 -0.0000 -0.0000 7.3843 17.9822 24.2628 7.5970 -7.1250 0.0000 -0.0000 -12.1697 54.9210 -2.9981 0.0000 0.0000 0.0000 86.8404 -2.6918 20.7656 -20.9001 31.7116 -5.9974 0.0000 0.0000 4.7229 -14.8722 11.0103 -2.9034 7.1250 -0.0000 -0.0000 8.6004 -18.6687 5.4567
5.0046 17.8068 -1.7668 11.2587 -44.9690 -8.3230 0.0000 0.0000 0.0000 -31.4252 1.6702 15.6356 0.0000 0.0000 0.0000 -0.1033 -8.5823 -3.7188 0.0126 0.7255 1.9938 0.0000 0.0000 0.0000 8.7966 8.4408 -30.6431 -2.3984 -9.6508 27.8531 0.0908 -6.8430 -7.0615 -0.1873 -2.7873 7.6872 -7.1124 0.1711 11.0736 -0.7934 -0.7082 1.3077 3.2823 -0.2372 -4.7699 -10.5057 -4.3952 -20.4073 6.5898 -4.5896 22.6049 3.4371 -2.2155 11.1086 0.0000 -0.0000 0.0000 -82.7291 -3.2186 28.4885 21.6639 -32.5951 -6.4039 -0.0000 -0.0000 7.2081 18.0691 24.5546 7.7209 -7.1250 0.0000 -0.0000 -12.2178 55.2295 -3.1025 0.0000 -0.0000 0.0000 86.8463 -2.6254 20.7127 -20.7939 31.5870 -5.9416 0.0000 0.0000 4.7695 -14.8642 11.1273 -2.9322 7.1250 -0.0000 -0.0000 8.6042 -18.5499 5.4820
4.8797 17.7989 -1.6721 11.3513 -44.7011 -8.2925 0.0000 0.0000 0.0000 -31.5769 1.4486 16.2225 0.0000 -0.0000 -0.0000 -0.0780 -8.1722 -3.9526 0.0003 0.1190 0.3269 0.0000 0.0000 0.0000 8.1963 9.3513 -30.1621 -2.0609 -8.9919 25.7699 0.0509 -6.8847 -8.4726 -0.1671 -2.6339 7.2611 -7.1827 0.0394 10.9025 -0.8076 -0.8745 1.3629 3.3286 -0.3255 -4.5973 -10.3230 -4.3178 -20.6575 6.4945 -4.4920 22.7354 3.3880 -2.1642 11.1877 0.0000 -0.0000 0.0000 -82.7208 -3.5115 28.5270 21.7120 -32.6500 -6.4298 -0.0000 -0.0000 7.2194 17.6101 24.9241 7.6189 -7.1250 0.0000 -0.0000 -12.8669 55.5065 -3.3584 0.0000 -0.0000 0.0000 86.8678 -2.5560 20.5605 -20.6942 31.4696 -5.8895 0.0000 0.0000 4.9918 -14.9101 11.3199 -2.9918 7.1250 -0.0000 -0.0000 8.5693 -18.3506 5.4975
4.7551 17.7883 -1.5814 11.3882 -44.3170 -8.2369 0.0000 0.0000 0.0000 -31.6771 1.1230 16.8756 0.0000 -0.0000 -0.0000 -0.0592 -7.7703 -4.0559 0.0007 -0.1738 -0.4775 0.0000 0.0000 0.0000 7.5453 10.4169 -29.6147 -1.7881 -8.4101 23.9668 -0.0125 -6.9767 -10.2414 -0.0808 -1.8336 5.0461 -7.2437 -0.0820 10.8669 -0.8189 -1.0393 1.3778 3.3739 -0.4081 -4.5427 -10.1690 -4.2580 -20.8167 6.4859 -4.4452 22.8628 3.3683 -2.1295 11.2566 0.0000 0.0000 0.0000 -82.6116 -3.7459 28.8779 21.7869 -32.7354 -6.4702 -0.0000 -0.0000 7.0235 17.5067 25.0076 7.5952 -7.1250 0.0000 -0.0000 -13.0143 55.5687 -3.4176 0.0000 0.0000 0.0000 86.9493 -2.5670 20.3197 -20.6189 31.3808 -5.8502 0.0000 0.0000 5.2430 -14.9103 11.2258 -2.9674 7.1250 -0.0000 -0.0000 8.5705 -18.4465 5.4799
4.6292 17.7785 -1.4917 11.4109 -43.9419 -8.1192 0.0000 0.0000 0.0000 -31.7332 0.7666 17.4738 0.0000 0.0000 0.0000 -0.0464 -7.4797 -4.1253 0.0018 -0.2772 -0.7617 0.0000 0.0000 0.0000 6.9421 11.3641 -29.1736 -1.5767 -7.9223 22.4782 -0.1072 -6.8856 -12.0531 -0.0293 -1.1057 3.0396 -6.8857 -0.1036 10.2250 -1.1041 -0.9682 1.8042 2.8511 -0.4192 -3.7561 -10.1699 -4.5116 -21.1598 6.8585 -4.8492 22.5850 3.4346 -2.2538 11.2672 0.0000 -0.0000 0.0000 -82.0643 -4.7141 29.7512 21.8320 -32.7867 -6.4946 -0.0000 -0.0000 6.6993 17.6985 24.8764 7.6456 -7.1250 0.0000 -0.0000 -12.7528 55.4767 -3.3186 0.0000 -0.0000 0.0000 87.5036 -1.9851 19.5525 -20.5409 31.2885 -5.8097 0.0000 0.0000 5.4151 -14.8865 11.1134 -2.9332 7.1250 -0.0000 -0.0000 8.5888 -18.5626 5.4695
4.5030 17.7640 -1.3940 11.3150 -43.6855 -8.0965 0.0000 0.0000 0.0000 -31.6854 0.6177 18.2334 0.0000 0.0000 0.0000 -0.0314 -7.2254 -4.2980 0.0086 -0.5975 -1.6419 0.0000 0.0000 0.0000 6.6605 11.9206 -28.7150 -1.4245 -7.5473 21.3472 -0.2202 -6.5868 -13.6357 -0.0025 -0.3250 0.8931 -6.6281 -0.1734 9.9983 -1.1901 -1.0095 2.0094 2.6175 -0.4591 -3.4175 -10.1983 -4.5758 -21.1992 6.9847 -4.9459 22.3540 3.4661 -2.2800 11.2021 0.0000 -0.0000 0.0000 -81.9271 -5.0982 30.1279 21.9032 -32.8674 -6.5332 -0.0000 -0.0000 6.6941 18.2630 24.7255 7.8589 -7.1250 0.0000 -0.0000 -12.0998 55.4389 -3.1338 0.0000 -0.0000 0.0000 87.6592 -1.8597 19.3727 -20.4880 31.2258 -5.7822 0.0000 0.0000 5.2717 -14.9219 11.0673 -2.9284 7.1250 -0.0000 -0.0000 8.5647 -18.6075 5.4452
4.3786 17.7483 -1.2936 11.2198 -43.5015 -8.0637 0.0000 0.0000 0.0000 -31.6158 0.5162 18.9329 0.0000 0.0000 0.0000 -0.0281 -7.0764 -4.2616 0.0036 -0.3900 -1.0717 0.0000 0.0000 0.0000 6.5443 12.1373 -28.4219 -1.3266 -7.2939 20.5892 -0.3307 -6.1730 -14.8674 -0.0091 0.6144 -1.6882 -6.6855 -0.3120 10.1608 -1.0221 -1.2093 1.8886 2.8538 -0.5470 -3.6104 -10.2952 -4.4703 -21.1515 6.8349 -4.7325 22.4239 3.4629 -2.2125 11.1967 0.0000 -0.0000 0.0000 -82.2419 -4.9518 30.0652 21.9312 -32.8992 -6.5484 -0.0000 -0.0000 6.6703 18.5729 24.6532 7.9785 -7.1250 0.0000 -0.0000 -11.7465 55.4285 -3.0374 0.0000 -0.0000 0.0000 87.3479 -2.1597 19.6790 -20.4151 31.1392 -5.7445 0.0000 0.0000 5.0470 -14.9141 10.8387 -2.8672 7.1250 -0.0000 -0.0000 8.5738 -18.8412 5.4062
4.2553 17.7426 -1.1973 11.0662 -43.3160 -7.8856 0.0000 0.0000 0.0000 -31.4729 0.3256 19.4928 0.0000 0.0000 0.0000 -0.0364 -7.0654 -4.0329 0.0004 0.1267 0.3480 0.0000 0.0000 0.0000 6.5686 12.1789 -28.3044 -1.2814 -7.1736 20.2308 -0.3954 -5.9195 -15.5200 -0.0769 1.7892 -4.9234 -6.9995 -0.5027 10.6825 -0.6309 -1.5396 1.3978 3.4999 -0.6635 -4.3640 -10.4029 -4.2449 -20.8004 6.3856 -4.3103 22.6615 3.3879 -2.0982 11.1693 0.0000 -0.0000 0.0000 -82.9381 -4.2015 29.5484 21.9981 -32.9749 -6.5848 -0.0000 -0.0000 6.8605 17.9629 24.9311 7.7819 -7.1250 0.0000 -0.0000 -12.5077 55.5840 -3.2862 0.0000 -0.0000 0.0000 86.6750 -2.9916 20.1968 -20.3538 31.0663 -5.7128 0.0000 0.0000 4.9213 -14.7319 10.8227 -2.8265 7.1250 -0.0000 -0.0000 8.7022 -18.8684 5.4837
4.1324 17.7371 -1.0985 11.0173 -43.2473 -7.8058 0.0000 0.0000 0.0000 -31.4020 0.2616 20.0157 0.0000 0.0000 0.0000 -0.0402 -7.0185 -3.8888 0.0002 0.0836 0.2296 0.0000 0.0000 0.0000 6.7998 11.6904 -28.4304 -1.2902 -7.1973 20.3012 -0.3918 -5.5143 -15.1366 -0.2271 3.0673 -8.4661 -6.2727 -0.3983 9.7925 -1.0298 -1.2440 2.0458 2.6104 -0.5830 -3.2476 -10.3344 -4.5723 -21.1147 6.7641 -4.8298 22.1269 3.4217 -2.2646 11.0882 0.0000 -0.0000 0.0000 -82.3203 -5.4728 30.3027 21.9387 -32.9077 -6.5525 -0.0000 -0.0000 6.8996 17.6937 24.8740 7.6427 -7.1250 0.0000 -0.0000 -12.7566 55.4733 -3.3186 0.0000 -0.0000 0.0000 87.4428 -2.0984 18.9897 -20.1570 30.8311 -5.6116 0.0000 0.0000 5.2777 -14.6813 10.8871 -2.8329 7.1250 -0.0000 -0.0000 8.7367 -18.8060 5.5182
4.0079 17.7260 -0.9990 11.1805 -43.3300 -7.8863 0.0000 0.0000 0.0000 -31.4521 0.3640 20.5037 0.0000 -0.0000 -0.0000 -0.0432 -6.9565 -3.7497 0.0011 -0.2122 -0.5830 0.0000 0.0000 0.0000 7.0660 10.9274 -28.7644 -1.3432 -7.3379 20.7202 -0.3379 -4.8008 -13.8058 -0.2872 3.4464 -9.5240 -6.3347 -0.3509 9.7716 -1.0451 -1.1880 2.0075 2.6224 -0.5529 -3.2801 -10.4045 -4.6000 -21.1396 6.8327 -4.8642 22.1803 3.4541 -2.2781 11.1202 0.0000 -0.0000 0.0000 -82.3737 -5.5065 30.4704 21.9352 -32.9038 -6.5506 -0.0000 -0.0000 7.0377 17.7518 24.4728 7.5545 -7.1250 0.0000 -0.0000 -12.5038 55.0855 -3.1327 0.0000 -0.0000 0.0000 87.4736 -2.2968 18.8334 -20.0863 30.7462 -5.5754 0.0000 0.0000 5.3945 -14.6209 10.7544 -2.7868 7.1250 -0.0000 -0.0000 8.7817 -18.9447 5.5200
